<svg xmlns="http://www.w3.org/2000/svg" viewBox="0 0 512 512">
  <defs>
    <linearGradient id="bookGrad" x1="0%" y1="0%" x2="100%" y2="100%">
      <stop offset="0%" style="stop-color:#3B82F6;stop-opacity:1" />
      <stop offset="100%" style="stop-color:#1D4ED8;stop-opacity:1" />
    </linearGradient>
  </defs>
  <!-- Background circle -->
  <circle cx="256" cy="256" r="240" fill="url(#bookGrad)"/>
  <!-- Open book base -->
  <path d="M100 340 L256 380 L412 340 L412 160 L256 200 L100 160 Z" fill="#ffffff" opacity="0.95"/>
  <!-- Book spine/center -->
  <path d="M256 200 L256 380" stroke="#1D4ED8" stroke-width="4" fill="none"/>
  <!-- Left page lines (hierarchical) -->
  <line x1="130" y1="200" x2="230" y2="220" stroke="#3B82F6" stroke-width="3" opacity="0.6"/>
  <line x1="140" y1="230" x2="230" y2="245" stroke="#3B82F6" stroke-width="3" opacity="0.6"/>
  <line x1="150" y1="260" x2="230" y2="270" stroke="#3B82F6" stroke-width="3" opacity="0.6"/>
  <line x1="140" y1="290" x2="230" y2="295" stroke="#3B82F6" stroke-width="3" opacity="0.6"/>
  <line x1="130" y1="320" x2="230" y2="320" stroke="#3B82F6" stroke-width="3" opacity="0.6"/>
  <!-- Right page lines (hierarchical) -->
  <line x1="282" y1="220" x2="382" y2="200" stroke="#3B82F6" stroke-width="3" opacity="0.6"/>
  <line x1="282" y1="245" x2="372" y2="230" stroke="#3B82F6" stroke-width="3" opacity="0.6"/>
  <line x1="282" y1="270" x2="362" y2="260" stroke="#3B82F6" stroke-width="3" opacity="0.6"/>
  <line x1="282" y1="295" x2="372" y2="290" stroke="#3B82F6" stroke-width="3" opacity="0.6"/>
  <line x1="282" y1="320" x2="382" y2="320" stroke="#3B82F6" stroke-width="3" opacity="0.6"/>
  <!-- Tree/branch icon at top -->
  <circle cx="256" cy="120" r="30" fill="#ffffff" opacity="0.9"/>
  <path d="M256 105 L256 135 M246 115 L256 105 L266 115 M241 125 L256 115 L271 125" stroke="#1D4ED8" stroke-width="3" fill="none" stroke-linecap="round"/>
</svg>
